<svg width="128" height="43" viewBox="0 0 128 43" fill="none" xmlns="http://www.w3.org/2000/svg">
<path d="M16.4352 33.0162C21.255 33.0162 24.8869 31.4392 27.73 28.4762C30.6568 25.5462 31.5654 21.4441 31.5654 18.1256C31.5654 17.0952 31.4864 16.1503 31.3284 15.3569H16.4352V19.7816H27.0222C26.7062 22.2705 25.8733 24.0878 24.6143 25.352C23.0709 26.8894 20.6637 28.5915 16.4352 28.5915C9.9177 28.5915 4.82041 23.3371 4.82041 16.8186C4.82041 10.3001 9.9177 5.04249 16.4352 5.04249C19.9486 5.04249 22.5208 6.4285 24.4138 8.20628L27.5358 5.08529C24.8869 2.56019 21.3735 0.621094 16.4352 0.621094C7.50518 0.621094 0 7.88694 0 16.8186C0 25.747 7.50518 33.0162 16.4352 33.0162ZM43.6181 33.0162C49.3827 33.0162 54.084 28.5915 54.084 22.5832C54.084 16.5421 49.3827 12.1569 43.6181 12.1569C37.8436 12.1569 33.1424 16.5421 33.1424 22.5832C33.1424 28.5915 37.8436 33.0162 43.6181 33.0162ZM43.6181 28.9075C40.4543 28.9075 37.7251 26.3001 37.7251 22.5832C37.7251 18.8334 40.4543 16.2688 43.6181 16.2688C46.7753 16.2688 49.5012 18.8334 49.5012 22.5832C49.5012 26.3001 46.7753 28.9075 43.6181 28.9075ZM66.4494 33.0162C72.2173 33.0162 76.9185 28.5915 76.9185 22.5832C76.9185 16.5421 72.2173 12.1569 66.4494 12.1569C60.6782 12.1569 55.977 16.5421 55.977 22.5832C55.977 28.5915 60.6782 33.0162 66.4494 33.0162ZM66.4494 28.9075C63.2889 28.9075 60.5597 26.3001 60.5597 22.5832C60.5597 18.8334 63.2889 16.2688 66.4494 16.2688C69.6099 16.2688 72.3358 18.8334 72.3358 22.5832C72.3358 26.3001 69.6099 28.9075 66.4494 28.9075ZM88.8889 42.3791C94.2584 42.3791 98.8082 39.2219 98.8082 31.5149V12.789H94.4593V14.4878H94.3012C93.2708 13.2631 91.2955 12.1569 88.8132 12.1569C83.5951 12.1569 78.8181 16.7396 78.8181 22.626C78.8181 28.4762 83.5951 33.0162 88.8132 33.0162C91.2955 33.0162 93.2708 31.91 94.3012 30.6458H94.4593V32.147C94.4593 36.1404 92.3259 38.2705 88.8889 38.2705C86.0872 38.2705 84.3457 36.259 83.6313 34.5536L79.6445 36.2162C80.7934 38.9849 83.8321 42.3791 88.8889 42.3791ZM89.2017 28.9075C86.0444 28.9075 83.3942 26.2639 83.3942 22.626C83.3942 18.952 86.0444 16.2688 89.2017 16.2688C92.3259 16.2688 94.7753 18.952 94.7753 22.626C94.7753 26.2639 92.3259 28.9075 89.2017 28.9075ZM106.548 1.72727H101.965V32.3841H106.548V1.72727ZM119.111 33.0162C123.888 33.0162 126.657 30.096 127.802 28.3939L124.244 26.0269C123.062 27.7585 121.442 28.9075 119.111 28.9075C116.78 28.9075 115.118 27.8408 114.054 25.747L128 19.9758L127.526 18.7939C126.657 16.4631 124.007 12.1569 118.598 12.1569C113.225 12.1569 108.76 16.3873 108.76 22.5832C108.76 28.4334 113.185 33.0162 119.111 33.0162ZM113.304 22.2705C113.185 18.2441 116.425 16.1865 118.756 16.1865C120.573 16.1865 122.114 17.0952 122.63 18.3989L113.304 22.2705Z" fill="#6B7280"/>
</svg>
