<svg width="156" height="37" viewBox="0 0 156 37" fill="none" xmlns="http://www.w3.org/2000/svg">
<mask id="mask0_0_2523" style="mask-type:alpha" maskUnits="userSpaceOnUse" x="0" y="2" width="30" height="33">
<path d="M12.0589 2.94615C13.8053 1.93787 15.9569 1.93787 17.7033 2.94615L26.94 8.27895C28.6864 9.28722 29.7622 11.1506 29.7622 13.1671V23.8327C29.7622 25.8493 28.6864 27.7127 26.94 28.7209L17.7033 34.0537C15.9569 35.062 13.8053 35.062 12.0589 34.0537L2.8222 28.7209C1.07582 27.7127 0 25.8493 0 23.8327V13.1671C0 11.1506 1.07582 9.28722 2.8222 8.27895L12.0589 2.94615Z" fill="#C4C4C4"/>
</mask>
<g mask="url(#mask0_0_2523)">
<path d="M14.8768 1.03589L31.1887 10.4535L22.9338 14.8983L19.5241 13.0384L16.4243 13.3484L8.67486 10.5586L6.815 13.0384L5.88507 14.2783L4.02521 13.0384L-1.43499 10.4535L14.8768 1.03589Z" fill="url(#paint0_linear_0_2523)"/>
<path d="M-0.12854 10.587L6.19935 13.6556L9.91908 22.6449L9.91908 22.9549L11.159 24.5048L16.7386 28.8445L14.8806 36.5836L-0.12854 27.9181L-0.12854 10.587Z" fill="url(#paint1_linear_0_2523)"/>
<path d="M19.8341 22.9543L23.8638 14.2749L29.886 10.5887L29.886 27.9197L14.8769 36.5852L14.5645 28.8438L19.8341 22.9543Z" fill="url(#paint2_linear_0_2523)"/>
<path d="M14.8762 8.08276C12.3114 8.08276 9.97404 9.05624 8.21317 10.6538L9.64274 22.9616C10.0337 23.142 12.2758 23.8916 12.7064 23.8916H15.8062C16.354 23.8916 20.1459 22.7238 20.1459 23.2716L19.8359 21.9696C19.8359 22.5175 19.3918 22.9616 18.844 22.9616H10.9085C10.3607 22.9616 9.91661 22.5175 9.91661 21.9696V17.1676C9.91661 16.737 9.82317 16.3116 9.64274 15.9206L8.21317 10.6538C6.61557 12.4146 4.95697 15.4372 4.95697 18.002C4.95697 23.4804 9.39793 27.9213 14.8762 27.9213C20.3546 27.9213 24.7955 23.4804 24.7955 18.002C24.7955 12.5237 20.3546 8.08276 14.8762 8.08276Z" fill="url(#paint3_linear_0_2523)"/>
<path d="M13.0393 12.2229C13.2582 12.1384 13.4926 12.1053 13.7245 12.1259C13.9565 12.1466 14.1799 12.2206 14.378 12.3423C14.5761 12.464 14.7436 12.6302 14.8678 12.8283C14.992 13.0264 15.0697 13.2512 15.0949 13.4858C15.275 15.1757 14.8955 16.8867 14.0159 18.3504C13.1364 19.814 11.8065 20.9474 10.2351 21.5727L9.12304 18.6973C10.0617 18.3235 10.8568 17.6475 11.3845 16.7745C11.9123 15.9015 12.1433 14.8804 12.0414 13.8702C12.0043 13.5252 12.0821 13.1758 12.2623 12.8774C12.4426 12.579 12.7151 12.3486 13.0366 12.2229L13.0393 12.2229Z" fill="#9C5AFF"/>
<path d="M13.0265 12.2277C12.6466 12.3791 12.3394 12.6762 12.1723 13.0539C12.0052 13.4316 11.9919 13.8588 12.1354 14.2417L15.3854 22.9086C15.5291 23.2914 15.8177 23.5985 16.1879 23.7623C16.558 23.926 16.9794 23.9331 17.3593 23.782C17.5475 23.7071 17.7198 23.5957 17.8664 23.4539C18.0131 23.3122 18.1311 23.143 18.2139 22.9559C18.2967 22.7689 18.3425 22.5677 18.3488 22.3639C18.355 22.16 18.3216 21.9575 18.2504 21.7679L15.0004 13.1011C14.9294 12.9115 14.822 12.7384 14.6843 12.5919C14.5466 12.4453 14.3814 12.3282 14.1981 12.2471C14.0148 12.1659 13.817 12.1225 13.6159 12.1192C13.4149 12.1159 13.2146 12.1527 13.0265 12.2277Z" fill="#9C5AFF"/>
<path d="M17.345 23.7841C17.1261 23.8687 16.8918 23.9019 16.6599 23.8813C16.428 23.8607 16.2046 23.7867 16.0065 23.6651C15.8084 23.5435 15.6409 23.3774 15.5167 23.1793C15.3925 22.9812 15.3148 22.7564 15.2896 22.5219C15.1096 20.832 15.4892 19.121 16.3687 17.6573C17.2482 16.1935 18.5779 15.06 20.1491 14.4344L21.2613 17.3109C20.3226 17.6847 19.5275 18.3607 18.9998 19.2337C18.472 20.1067 18.241 21.1277 18.3429 22.138C18.3795 22.4831 18.3011 22.8324 18.1204 23.1306C17.9396 23.4288 17.6667 23.6588 17.345 23.7841Z" fill="#9C5AFF"/>
</g>
<path d="M43.4838 27.5V10.0455H46.6457V24.8494H54.3332V27.5H43.4838ZM60.7082 27.7642C59.8787 27.7642 59.1315 27.6165 58.4668 27.321C57.8077 27.0199 57.2849 26.5767 56.8986 25.9915C56.5179 25.4062 56.3275 24.6847 56.3275 23.8267C56.3275 23.0881 56.4639 22.4773 56.7366 21.9943C57.0094 21.5114 57.3815 21.125 57.8531 20.8352C58.3247 20.5455 58.856 20.3267 59.4469 20.179C60.0435 20.0256 60.6599 19.9148 61.2963 19.8466C62.0633 19.767 62.6855 19.696 63.1628 19.6335C63.64 19.5653 63.9866 19.4631 64.2025 19.3267C64.4241 19.1847 64.5349 18.9659 64.5349 18.6705V18.6193C64.5349 17.9773 64.3446 17.4801 63.9639 17.1278C63.5832 16.7756 63.0349 16.5994 62.319 16.5994C61.5633 16.5994 60.9639 16.7642 60.5207 17.0938C60.0832 17.4233 59.7878 17.8125 59.6344 18.2614L56.7537 17.8523C56.981 17.0568 57.356 16.392 57.8787 15.858C58.4014 15.3182 59.0406 14.9148 59.7963 14.6477C60.552 14.375 61.3872 14.2386 62.302 14.2386C62.9327 14.2386 63.5605 14.3125 64.1855 14.4602C64.8105 14.608 65.3815 14.8523 65.8986 15.1932C66.4156 15.5284 66.8304 15.9858 67.1429 16.5653C67.4611 17.1449 67.6202 17.8693 67.6202 18.7386V27.5H64.6543V25.7017H64.552C64.3645 26.0653 64.1003 26.4062 63.7594 26.7244C63.4241 27.0369 63.0008 27.2898 62.4895 27.483C61.9838 27.6705 61.39 27.7642 60.7082 27.7642ZM61.5094 25.4972C62.1287 25.4972 62.6656 25.375 63.1202 25.1307C63.5747 24.8807 63.9241 24.5511 64.1685 24.142C64.4185 23.733 64.5435 23.2869 64.5435 22.804V21.2614C64.4469 21.3409 64.2821 21.4148 64.0491 21.483C63.8219 21.5511 63.5662 21.6108 63.2821 21.6619C62.998 21.7131 62.7168 21.7585 62.4383 21.7983C62.1599 21.8381 61.9185 21.8722 61.7139 21.9006C61.2537 21.9631 60.8418 22.0653 60.4781 22.2074C60.1145 22.3494 59.8275 22.5483 59.6173 22.804C59.4071 23.054 59.302 23.3778 59.302 23.7756C59.302 24.3438 59.5094 24.7727 59.9241 25.0625C60.3389 25.3523 60.8673 25.4972 61.5094 25.4972ZM73.8077 19.8295V27.5H70.7224V14.4091H73.6713V16.6335H73.8247C74.1258 15.9006 74.606 15.3182 75.265 14.8864C75.9298 14.4545 76.7508 14.2386 77.7281 14.2386C78.6315 14.2386 79.4185 14.4318 80.0889 14.8182C80.765 15.2045 81.2878 15.7642 81.6571 16.4972C82.0321 17.2301 82.2168 18.1193 82.2111 19.1648V27.5H79.1258V19.642C79.1258 18.767 78.8986 18.0824 78.444 17.5881C77.9952 17.0937 77.373 16.8466 76.5775 16.8466C76.0378 16.8466 75.5577 16.9659 75.1372 17.2045C74.7224 17.4375 74.3957 17.7756 74.1571 18.2188C73.9241 18.6619 73.8077 19.1989 73.8077 19.8295ZM90.2054 27.7301C89.177 27.7301 88.2565 27.4659 87.444 26.9375C86.6315 26.4091 85.9895 25.642 85.5179 24.6364C85.0463 23.6307 84.8105 22.4091 84.8105 20.9716C84.8105 19.517 85.0491 18.2898 85.5264 17.2898C86.0094 16.2841 86.6599 15.5256 87.4781 15.0142C88.2963 14.4972 89.2082 14.2386 90.2139 14.2386C90.981 14.2386 91.6116 14.3693 92.106 14.6307C92.6003 14.8864 92.9923 15.196 93.2821 15.5597C93.5719 15.9176 93.7963 16.2557 93.9554 16.5739H94.0832V10.0455H97.177V27.5H94.1429V25.4375H93.9554C93.7963 25.7557 93.5662 26.0937 93.265 26.4517C92.9639 26.804 92.5662 27.1051 92.0719 27.3551C91.5775 27.6051 90.9554 27.7301 90.2054 27.7301ZM91.0662 25.1989C91.7196 25.1989 92.2764 25.0227 92.7366 24.6705C93.1969 24.3125 93.5463 23.8153 93.7849 23.179C94.0236 22.5426 94.1429 21.8011 94.1429 20.9545C94.1429 20.108 94.0236 19.3722 93.7849 18.7472C93.552 18.1222 93.2054 17.6364 92.7452 17.2898C92.2906 16.9432 91.731 16.7699 91.0662 16.7699C90.3787 16.7699 89.8048 16.9489 89.3446 17.3068C88.8844 17.6648 88.5378 18.1591 88.3048 18.7898C88.0719 19.4205 87.9554 20.142 87.9554 20.9545C87.9554 21.7727 88.0719 22.5028 88.3048 23.1449C88.5435 23.7812 88.8929 24.2841 89.3531 24.6534C89.819 25.017 90.39 25.1989 91.0662 25.1989ZM103.166 27.5L99.4675 14.4091H102.612L104.913 23.6136H105.033L107.385 14.4091H110.496L112.848 23.5625H112.976L115.243 14.4091H118.396L114.689 27.5H111.476L109.021 18.6534H108.842L106.388 27.5H103.166ZM120.551 27.5V14.4091H123.636V27.5H120.551ZM122.102 12.5511C121.613 12.5511 121.193 12.3892 120.84 12.0653C120.488 11.7358 120.312 11.3409 120.312 10.8807C120.312 10.4148 120.488 10.0199 120.84 9.69602C121.193 9.36648 121.613 9.2017 122.102 9.2017C122.596 9.2017 123.016 9.36648 123.363 9.69602C123.715 10.0199 123.891 10.4148 123.891 10.8807C123.891 11.3409 123.715 11.7358 123.363 12.0653C123.016 12.3892 122.596 12.5511 122.102 12.5511ZM129.894 19.8295V27.5H126.808V14.4091H129.757V16.6335H129.911C130.212 15.9006 130.692 15.3182 131.351 14.8864C132.016 14.4545 132.837 14.2386 133.814 14.2386C134.717 14.2386 135.504 14.4318 136.175 14.8182C136.851 15.2045 137.374 15.7642 137.743 16.4972C138.118 17.2301 138.303 18.1193 138.297 19.1648V27.5H135.212V19.642C135.212 18.767 134.985 18.0824 134.53 17.5881C134.081 17.0937 133.459 16.8466 132.663 16.8466C132.124 16.8466 131.644 16.9659 131.223 17.2045C130.808 17.4375 130.482 17.7756 130.243 18.2188C130.01 18.6619 129.894 19.1989 129.894 19.8295ZM146.291 27.7301C145.263 27.7301 144.342 27.4659 143.53 26.9375C142.717 26.4091 142.075 25.642 141.604 24.6364C141.132 23.6307 140.896 22.4091 140.896 20.9716C140.896 19.517 141.135 18.2898 141.612 17.2898C142.095 16.2841 142.746 15.5256 143.564 15.0142C144.382 14.4972 145.294 14.2386 146.3 14.2386C147.067 14.2386 147.698 14.3693 148.192 14.6307C148.686 14.8864 149.078 15.196 149.368 15.5597C149.658 15.9176 149.882 16.2557 150.041 16.5739H150.169V10.0455H153.263V27.5H150.229V25.4375H150.041C149.882 25.7557 149.652 26.0937 149.351 26.4517C149.05 26.804 148.652 27.1051 148.158 27.3551C147.663 27.6051 147.041 27.7301 146.291 27.7301ZM147.152 25.1989C147.806 25.1989 148.362 25.0227 148.823 24.6705C149.283 24.3125 149.632 23.8153 149.871 23.179C150.11 22.5426 150.229 21.8011 150.229 20.9545C150.229 20.108 150.11 19.3722 149.871 18.7472C149.638 18.1222 149.291 17.6364 148.831 17.2898C148.377 16.9432 147.817 16.7699 147.152 16.7699C146.465 16.7699 145.891 16.9489 145.431 17.3068C144.97 17.6648 144.624 18.1591 144.391 18.7898C144.158 19.4205 144.041 20.142 144.041 20.9545C144.041 21.7727 144.158 22.5028 144.391 23.1449C144.629 23.7812 144.979 24.2841 145.439 24.6534C145.905 25.017 146.476 25.1989 147.152 25.1989Z" fill="#111928"/>
<defs>
<linearGradient id="paint0_linear_0_2523" x1="14.5644" y1="2.4992" x2="14.2819" y2="13.8215" gradientUnits="userSpaceOnUse">
<stop stop-color="#4E00D3"/>
<stop offset="1" stop-color="#7A36F0"/>
</linearGradient>
<linearGradient id="paint1_linear_0_2523" x1="14.8787" y1="25.4347" x2="5.90309" y2="14.6731" gradientUnits="userSpaceOnUse">
<stop stop-color="#5508D8"/>
<stop offset="1" stop-color="#7935EF"/>
</linearGradient>
<linearGradient id="paint2_linear_0_2523" x1="14.8744" y1="26.674" x2="23.4474" y2="15.2149" gradientUnits="userSpaceOnUse">
<stop stop-color="#5205D6"/>
<stop offset="1" stop-color="#7A35F0"/>
</linearGradient>
<linearGradient id="paint3_linear_0_2523" x1="14.8762" y1="8.08276" x2="14.8762" y2="27.9213" gradientUnits="userSpaceOnUse">
<stop stop-color="#7935EF"/>
<stop offset="1" stop-color="#6117E0"/>
</linearGradient>
</defs>
</svg>
