<svg width="137" height="39" viewBox="0 0 137 39" fill="none" xmlns="http://www.w3.org/2000/svg">
<g clip-path="url(#clip0_0_2573)">
<path d="M53.4402 15.222C51.7058 15.222 50.8477 16.587 50.454 17.4674C50.2341 17.959 50.1725 18.3477 49.9941 18.3477C49.7428 18.3477 49.9228 18.0099 49.7171 17.2607C49.4465 16.2749 48.6307 15.222 46.8974 15.222C45.0751 15.222 44.295 16.7617 43.925 17.6077C43.672 18.186 43.6717 18.3477 43.4771 18.3477C43.1952 18.3477 43.4288 17.8883 43.5555 17.3482C43.8054 16.2847 43.6155 15.4721 43.6155 15.4721H40.7268V26.3342H44.6697C44.6697 26.3342 44.6697 21.7947 44.6697 20.9298C44.6697 19.8639 45.1156 18.5113 45.8799 18.5113C46.7631 18.5113 46.9398 19.1894 46.9398 20.4453C46.9398 21.584 46.9398 26.3366 46.9398 26.3366H50.8986C50.8986 26.3366 50.8986 21.7695 50.8986 20.9298C50.8986 19.981 51.2858 18.5113 52.1146 18.5113C53.01 18.5113 53.1686 19.4641 53.1686 20.4453C53.1686 21.4266 53.1686 26.3342 53.1686 26.3342H57.0561C57.0561 26.3342 57.0561 22.0303 57.0561 19.9466C57.0561 17.1119 56.0569 15.222 53.4402 15.222Z" fill="#6B7280"/>
<path d="M120.365 15.222C118.631 15.222 117.773 16.587 117.379 17.4674C117.159 17.959 117.098 18.3477 116.919 18.3477C116.668 18.3477 116.836 17.9185 116.642 17.2607C116.353 16.2801 115.634 15.222 113.822 15.222C112 15.222 111.22 16.7617 110.85 17.6077C110.597 18.186 110.597 18.3477 110.402 18.3477C110.12 18.3477 110.354 17.8883 110.481 17.3482C110.73 16.2847 110.541 15.4721 110.541 15.4721H107.652V26.3342H111.595C111.595 26.3342 111.595 21.7947 111.595 20.9298C111.595 19.8639 112.041 18.5113 112.805 18.5113C113.688 18.5113 113.865 19.1894 113.865 20.4453C113.865 21.584 113.865 26.3366 113.865 26.3366H117.823C117.823 26.3366 117.823 21.7695 117.823 20.9298C117.823 19.981 118.211 18.5113 119.04 18.5113C119.935 18.5113 120.094 19.4641 120.094 20.4453C120.094 21.4266 120.094 26.3342 120.094 26.3342H123.981C123.981 26.3342 123.981 22.0303 123.981 19.9466C123.981 17.1119 122.982 15.222 120.365 15.222Z" fill="#6B7280"/>
<path d="M62.8287 23.7954C61.8858 24.0132 61.3971 23.7228 61.3971 23.0978C61.3971 22.2417 62.2825 21.8989 63.5465 21.8989C64.1036 21.8989 64.6275 21.9471 64.6275 21.9471C64.6275 22.3135 63.8321 23.5639 62.8287 23.7954ZM63.7886 15.2244C60.7683 15.2244 58.6011 16.3348 58.6011 16.3348V19.5988C58.6011 19.5988 60.9944 18.2228 62.9359 18.2228C64.4856 18.2228 64.676 19.0586 64.6054 19.7523C64.6054 19.7523 64.1586 19.634 62.7946 19.634C59.581 19.634 57.9587 21.0945 57.9587 23.4365C57.9587 25.658 59.782 26.5867 61.318 26.5867C63.5595 26.5867 64.5448 25.0804 64.8476 24.3658C65.0578 23.87 65.096 23.5359 65.2848 23.5359C65.4998 23.5359 65.4275 23.7755 65.4171 24.269C65.3988 25.1331 65.4395 25.7863 65.5765 26.3365H68.5483V20.9909C68.5483 17.6533 67.3675 15.2244 63.7886 15.2244Z" fill="#6B7280"/>
<path d="M75.0432 26.3366H78.9862V12.1838H75.0432V26.3366Z" fill="#6B7280"/>
<path d="M83.3262 20.9054C83.3262 19.9288 84.2335 19.0402 85.8993 19.0402C87.7143 19.0402 89.1741 19.9141 89.5016 20.1125V16.3348C89.5016 16.3348 88.3483 15.2244 85.5136 15.2244C82.5254 15.2244 80.037 16.9729 80.037 20.7364C80.037 24.4998 82.2953 26.5867 85.5056 26.5867C88.0131 26.5867 89.5079 25.2089 89.5079 25.2089V21.6207C89.035 21.8854 87.7173 22.7998 85.9174 22.7998C84.0115 22.7998 83.3262 21.9231 83.3262 20.9054Z" fill="#6B7280"/>
<path d="M97.4888 15.2244C95.2063 15.2244 94.3381 17.3874 94.1628 17.7631C93.9874 18.1386 93.9008 18.3546 93.7572 18.35C93.5081 18.3419 93.6818 17.889 93.7789 17.5956C93.9625 17.0416 94.3515 15.5879 94.3515 13.8012C94.3515 12.5893 94.1876 12.1837 94.1876 12.1837H90.7838V26.3365H94.7268C94.7268 26.3365 94.7268 21.8124 94.7268 20.9323C94.7268 20.0519 95.0781 18.5136 96.0714 18.5136C96.8942 18.5136 97.1517 19.1232 97.1517 20.3508C97.1517 21.5783 97.1517 26.3365 97.1517 26.3365H101.095C101.095 26.3365 101.095 23.0261 101.095 20.5871C101.095 17.7988 100.633 15.2244 97.4888 15.2244Z" fill="#6B7280"/>
<path d="M102.376 15.4869V26.3366H106.319V15.4869C106.319 15.4869 105.657 15.8746 104.352 15.8746C103.047 15.8746 102.376 15.4869 102.376 15.4869Z" fill="#6B7280"/>
<path d="M104.336 12.0739C103.003 12.0739 101.922 12.7791 101.922 13.6492C101.922 14.5191 103.003 15.2244 104.336 15.2244C105.669 15.2244 106.75 14.5191 106.75 13.6492C106.75 12.7791 105.669 12.0739 104.336 12.0739Z" fill="#6B7280"/>
<path d="M69.8243 15.4869V26.3366H73.7672V15.4869C73.7672 15.4869 73.1045 15.8746 71.7998 15.8746C70.4952 15.8746 69.8243 15.4869 69.8243 15.4869Z" fill="#6B7280"/>
<path d="M71.784 12.0739C70.4512 12.0739 69.3705 12.7791 69.3705 13.6492C69.3705 14.5191 70.4512 15.2244 71.784 15.2244C73.1171 15.2244 74.1977 14.5191 74.1977 13.6492C74.1977 12.7791 73.1171 12.0739 71.784 12.0739Z" fill="#6B7280"/>
<path d="M130.733 24.0024C129.828 24.0024 129.163 22.8556 129.163 21.2577C129.163 19.7059 129.846 18.5136 130.702 18.5136C131.799 18.5136 132.267 19.5198 132.267 21.2577C132.267 23.0656 131.835 24.0024 130.733 24.0024ZM131.815 15.222C129.788 15.222 128.859 16.7419 128.455 17.6077C128.189 18.1798 128.202 18.3477 128.007 18.3477C127.726 18.3477 127.959 17.8883 128.086 17.3482C128.336 16.2847 128.146 15.4721 128.146 15.4721H125.257V29.334H129.2C129.2 29.334 129.2 27.0657 129.2 24.9391C129.667 25.7306 130.531 26.5764 131.863 26.5764C134.715 26.5764 136.15 24.164 136.15 20.9046C136.15 17.2104 134.432 15.222 131.815 15.222Z" fill="#6B7280"/>
<path d="M26.797 18.5029C27.0622 18.4713 27.3162 18.4698 27.5496 18.5029C27.6847 18.1931 27.708 17.659 27.5864 17.0773C27.4058 16.2128 27.1614 15.6896 26.6562 15.771C26.1511 15.8524 26.1324 16.4788 26.313 17.3434C26.4146 17.8297 26.5955 18.2453 26.797 18.5029Z" fill="#6B7280"/>
<path d="M22.4601 19.1871C22.8215 19.3457 23.0437 19.4509 23.1306 19.3589C23.1865 19.3017 23.1699 19.1924 23.0836 19.0514C22.9052 18.7601 22.5381 18.4649 22.1488 18.2989C21.3526 17.9562 20.4031 18.0702 19.6705 18.5965C19.4288 18.7737 19.1995 19.0192 19.2323 19.1682C19.243 19.2164 19.2792 19.2528 19.364 19.2646C19.5634 19.2874 20.2601 18.9351 21.0627 18.886C21.6292 18.8513 22.0986 19.0285 22.4601 19.1871Z" fill="#6B7280"/>
<path d="M21.733 19.6019C21.2622 19.6762 21.0025 19.8315 20.8358 19.9758C20.6936 20.1 20.6057 20.2375 20.6064 20.3342C20.6067 20.3802 20.6267 20.4067 20.6424 20.4201C20.6639 20.4389 20.6893 20.4494 20.7198 20.4494C20.8262 20.4494 21.0643 20.3538 21.0643 20.3538C21.7195 20.1193 22.1516 20.1478 22.5799 20.1966C22.8166 20.2231 22.9284 20.2378 22.9803 20.1567C22.9958 20.1334 23.0143 20.083 22.9669 20.0062C22.8566 19.8273 22.3813 19.5249 21.733 19.6019" fill="#6B7280"/>
<path d="M25.3326 21.1249C25.6522 21.282 26.0041 21.2203 26.1187 20.9872C26.2332 20.7542 26.067 20.4379 25.7473 20.2807C25.4277 20.1238 25.0758 20.1853 24.9611 20.4184C24.8467 20.6516 25.0129 20.9677 25.3326 21.1249Z" fill="#6B7280"/>
<path d="M27.3875 19.3293C27.1279 19.3248 26.9126 19.61 26.9065 19.9661C26.9004 20.3223 27.1061 20.6144 27.3657 20.6189C27.6254 20.6233 27.8409 20.3381 27.8468 19.9821C27.8529 19.6259 27.6472 19.3336 27.3875 19.3293Z" fill="#6B7280"/>
<path d="M9.94529 25.7503C9.88069 25.6694 9.77457 25.6941 9.6718 25.718C9.60002 25.7348 9.5187 25.7536 9.42954 25.7521C9.23855 25.7484 9.07682 25.6669 8.98598 25.5273C8.86769 25.3457 8.87453 25.0747 9.00516 24.7648C9.02273 24.7228 9.04349 24.6764 9.06609 24.6258C9.27428 24.1585 9.6229 23.3764 9.23154 22.6313C8.93697 22.0704 8.45658 21.721 7.87898 21.6478C7.32448 21.5775 6.7536 21.783 6.38946 22.1847C5.81498 22.8186 5.7252 23.681 5.8363 23.9858C5.87704 24.0973 5.94069 24.1282 5.98699 24.1345C6.0847 24.1476 6.22923 24.0766 6.31978 23.8329C6.32625 23.8154 6.33487 23.7883 6.34567 23.7537C6.38607 23.625 6.46118 23.3852 6.58422 23.193C6.73258 22.9612 6.96365 22.8017 7.23487 22.7435C7.51119 22.6843 7.79359 22.7371 8.02999 22.8919C8.43248 23.1552 8.58744 23.6482 8.41562 24.1188C8.32682 24.3622 8.18252 24.8274 8.21438 25.2098C8.27869 25.9835 8.75461 26.2943 9.18224 26.3274C9.598 26.3429 9.88856 26.1097 9.96207 25.939C10.0055 25.8382 9.96884 25.7768 9.9453 25.7503" fill="#6B7280"/>
<path d="M13.8977 11.5384C15.2537 9.97147 16.923 8.60922 18.4183 7.84431C18.4701 7.81774 18.5249 7.87399 18.4969 7.92469C18.3781 8.13972 18.1496 8.60018 18.0771 8.94941C18.0658 9.00384 18.125 9.04477 18.1709 9.01348C19.1012 8.37936 20.7196 7.69987 22.1391 7.61252C22.2 7.60874 22.2295 7.68697 22.181 7.72419C21.9651 7.88984 21.729 8.11895 21.5565 8.35074C21.5271 8.39017 21.5548 8.44699 21.604 8.44728C22.6007 8.45438 24.0058 8.80319 24.9217 9.31689C24.9837 9.35157 24.9395 9.47156 24.8702 9.45569C23.4845 9.13819 21.2163 8.89721 18.8602 9.47188C16.7568 9.98498 15.1513 10.777 13.9802 11.6288C13.9209 11.672 13.8499 11.5938 13.8977 11.5384L13.8977 11.5384ZM20.6512 26.72C20.6514 26.7203 20.6515 26.7209 20.6516 26.7209C20.6519 26.7213 20.652 26.7221 20.6525 26.7225C20.652 26.7217 20.6516 26.7209 20.6512 26.72ZM26.2432 27.3801C26.2833 27.3632 26.3111 27.3174 26.3063 27.2719C26.3007 27.2158 26.2507 27.175 26.1947 27.1808C26.1947 27.1808 23.3008 27.609 20.5671 26.6084C20.8649 25.6406 21.6567 25.99 22.8534 26.0866C25.0105 26.2152 26.9437 25.9001 28.3725 25.4899C29.6107 25.1348 31.2367 24.4342 32.4998 23.4372C32.9258 24.3731 33.0762 25.4029 33.0762 25.4029C33.0762 25.4029 33.406 25.344 33.6815 25.5135C33.942 25.6738 34.133 26.0069 34.0025 26.8682C33.7369 28.4773 33.0529 29.7833 31.9035 30.9848C31.2037 31.7379 30.3542 32.3928 29.3823 32.869C28.8661 33.1401 28.3165 33.3747 27.7359 33.5642C23.4024 34.9795 18.9667 33.4236 17.5368 30.0822C17.4228 29.831 17.3263 29.5681 17.2502 29.293C16.6408 27.0911 17.1581 24.4494 18.7751 22.7865C18.7753 22.7863 18.775 22.7856 18.7751 22.7856C18.8748 22.6798 18.9765 22.555 18.9765 22.3981C18.9765 22.2669 18.8932 22.1284 18.8208 22.0302C18.255 21.2097 16.2954 19.8114 16.6887 17.1055C16.9712 15.1614 18.6713 13.7924 20.2564 13.8735C20.3904 13.8805 20.5246 13.8886 20.6582 13.8965C21.3451 13.9373 21.9443 14.0254 22.5098 14.0489C23.4562 14.0899 24.3073 13.9522 25.3153 13.1124C25.6553 12.829 25.9279 12.5835 26.3892 12.5053C26.4377 12.497 26.5583 12.4537 26.7994 12.4651C27.0454 12.4782 27.2797 12.5458 27.4902 12.6859C28.2984 13.2237 28.4129 14.526 28.4549 15.4788C28.4787 16.0226 28.5446 17.3384 28.567 17.7162C28.6184 18.5798 28.8455 18.7016 29.3047 18.8528C29.5631 18.938 29.8029 19.0013 30.1562 19.1005C31.2259 19.4008 31.8602 19.7055 32.2598 20.0969C32.4983 20.3414 32.6092 20.6014 32.6435 20.8492C32.7695 21.7694 31.929 22.9061 29.7039 23.939C27.2716 25.0678 24.3208 25.3537 22.282 25.1267C22.1257 25.1093 21.5696 25.0463 21.5677 25.046C19.9369 24.8264 19.0066 26.934 19.9853 28.3779C20.6162 29.3084 22.3344 29.9141 24.0534 29.9144C27.995 29.9148 31.0245 28.2317 32.1514 26.7781C32.1852 26.7346 32.1885 26.7299 32.2416 26.6495C32.2971 26.566 32.2514 26.5199 32.1823 26.5672C31.2615 27.1972 27.1719 29.6984 22.7975 28.9459C22.7975 28.9459 22.266 28.8585 21.7808 28.6698C21.3952 28.5198 20.5882 28.1485 20.4902 27.3206C24.0203 28.4123 26.2432 27.3802 26.2432 27.3802V27.3801ZM6.85308 18.9905C5.62535 19.2293 4.54325 19.9251 3.88159 20.8862C3.48606 20.5564 2.74926 19.9178 2.61916 19.669C1.56273 17.6632 3.77205 13.7631 5.31543 11.5606C9.12966 6.11755 15.1036 1.99758 17.869 2.74514C18.3187 2.87238 19.8075 4.5987 19.8075 4.5987C19.8075 4.5987 17.0433 6.13253 14.4797 8.27051C11.0255 10.9302 8.41621 14.7958 6.85308 18.9905ZM8.91614 28.1953C8.7303 28.227 8.54077 28.2397 8.3496 28.235C6.50233 28.1855 4.50693 26.5224 4.30864 24.5502C4.08949 22.3702 5.20335 20.6925 7.17551 20.2947C7.41128 20.2472 7.69622 20.2198 8.00348 20.2358C9.10846 20.2963 10.7368 21.1447 11.1088 23.552C11.4383 25.6839 10.915 27.8544 8.91614 28.1953V28.1953ZM33.94 24.3351C33.9242 24.2792 33.8211 23.9024 33.6795 23.4484C33.5379 22.9941 33.3912 22.6745 33.3912 22.6745C33.9593 21.8239 33.9694 21.0633 33.8939 20.6323C33.8132 20.0983 33.5909 19.6432 33.1428 19.1728C32.6946 18.7024 31.7782 18.2206 30.4901 17.8589C30.3428 17.8175 29.857 17.6842 29.8143 17.6713C29.8109 17.6434 29.7787 16.078 29.7495 15.4061C29.7281 14.9203 29.6864 14.1619 29.4511 13.4149C29.1707 12.4038 28.682 11.5191 28.0722 10.953C29.7553 9.20849 30.8059 7.28657 30.8034 5.63781C30.7985 2.46709 26.9046 1.50776 22.1058 3.49478C22.1008 3.49684 21.0964 3.92276 21.0891 3.92632C21.0845 3.92202 19.251 2.1229 19.2234 2.09887C13.7522 -2.6733 -3.35399 16.3406 2.11519 20.9586L3.31042 21.9712C3.00039 22.7743 2.87856 23.6945 2.97808 24.6841C3.10581 25.955 3.76139 27.1733 4.82398 28.1145C5.83267 29.0083 7.15888 29.5739 8.44587 29.5728C10.5742 34.4774 15.4371 37.4862 21.1388 37.6555C27.255 37.8372 32.3891 34.9673 34.5405 29.812C34.6812 29.4502 35.2784 27.82 35.2784 26.3809C35.2784 24.9346 34.4607 24.3351 33.94 24.3351Z" fill="#6B7280"/>
</g>
<defs>
<clipPath id="clip0_0_2573">
<rect width="136" height="37.2277" fill="white" transform="translate(0.599976 0.88623)"/>
</clipPath>
</defs>
</svg>
