<svg width="132" height="29" viewBox="0 0 132 29" fill="none" xmlns="http://www.w3.org/2000/svg">
<g clip-path="url(#clip0_0_2596)">
<path fill-rule="evenodd" clip-rule="evenodd" d="M20.7493 1.37737V16.5583C20.7493 21.6276 18.5053 23.7328 13.242 23.7328C7.97831 23.7328 5.73431 21.6276 5.73431 16.5583V0.712402H0.664972C0.221959 0.712402 0 0.934361 0 1.37737V16.8074C0 25.2847 5.40205 28.2489 13.242 28.2489C21.0816 28.2489 26.4836 25.2847 26.4836 16.8074V0.712402H21.4138C20.9708 0.712402 20.7493 0.934361 20.7493 1.37737Z" fill="#6B7280"/>
<path fill-rule="evenodd" clip-rule="evenodd" d="M94.2394 5.11723C94.6548 5.11723 94.8488 4.9789 94.9871 4.67376L96.4558 1.04466C96.539 0.823608 96.4558 0.712402 96.2339 0.712402H75.8173C73.9055 0.712402 73.1859 1.2942 73.1859 2.59611V26.1708C73.1859 27.2792 73.7392 27.7778 75.2079 27.7778H94.2394C94.6548 27.7778 94.8488 27.639 94.9871 27.3348L96.4558 23.7053C96.539 23.4838 96.4558 23.373 96.2339 23.373H78.8094V18.5803C78.8094 16.9181 79.7235 16.17 82.1885 16.17H89.7519C90.1673 16.17 90.3608 16.0321 90.4995 15.7274L91.9127 12.2366C91.9954 12.0147 91.9127 11.9044 91.6907 11.9044H78.8094V5.11723H94.2394Z" fill="#6B7280"/>
<path fill-rule="evenodd" clip-rule="evenodd" d="M52.979 23.4286H42.9755V18.4696C42.9755 16.8074 43.8896 16.0597 46.3555 16.0597H52.979C56.1646 16.0597 57.0511 17.2784 57.0511 19.7719C57.0511 22.265 56.1646 23.4286 52.979 23.4286ZM42.9755 5.06162H51.9262C54.9179 5.06162 55.7492 6.18859 55.7492 8.52436C55.7492 10.8606 54.9179 11.9876 51.9262 11.9876H42.9755V5.06162ZM58.2979 13.511C60.5139 12.3474 61.4279 10.159 61.4279 7.58273C61.4279 1.59888 56.5525 0.712402 51.5107 0.712402H39.9865C38.0748 0.712402 37.3551 1.2942 37.3551 2.59611V26.1708C37.3551 27.2792 37.9089 27.7778 39.3771 27.7778H53.5608C58.9073 27.7778 62.7298 25.7002 62.7298 20.2981C62.7298 17.0569 61.3447 14.3143 58.2979 13.511Z" fill="#6B7280"/>
<path fill-rule="evenodd" clip-rule="evenodd" d="M121.262 13.2614H111.843V5.06207H121.262C124.78 5.06207 125.555 6.41914 125.555 9.16176C125.555 11.932 124.78 13.2614 121.262 13.2614ZM131.844 27.3068L125.777 16.8905C128.797 16.1153 131.235 14.1208 131.235 9.05101C131.235 2.48581 127.162 0.712402 120.431 0.712402H108.851C106.94 0.712402 106.219 1.2942 106.219 2.59611V27.1129C106.219 27.5559 106.441 27.7778 106.884 27.7778H111.843V19.8827C111.843 18.2205 112.757 17.4723 115.223 17.4723H120.209L125.694 27.3348C125.86 27.6115 126.027 27.7778 126.442 27.7778H131.595C131.955 27.7778 131.955 27.4727 131.844 27.3068Z" fill="#6B7280"/>
</g>
<defs>
<clipPath id="clip0_0_2596">
<rect width="132" height="27.5753" fill="white" transform="translate(0 0.712402)"/>
</clipPath>
</defs>
</svg>
